<svg width="40" height="40" viewBox="0 0 40 40" fill="none" xmlns="http://www.w3.org/2000/svg">
<path d="M29.1673 10.8333H29.184M11.6673 3.33325H28.334C32.9364 3.33325 36.6673 7.06421 36.6673 11.6666V28.3333C36.6673 32.9356 32.9364 36.6666 28.334 36.6666H11.6673C7.06494 36.6666 3.33398 32.9356 3.33398 28.3333V11.6666C3.33398 7.06421 7.06494 3.33325 11.6673 3.33325ZM26.6673 18.9499C26.873 20.337 26.6361 21.7536 25.9902 22.9983C25.3444 24.2429 24.3226 25.2523 23.07 25.8827C21.8175 26.5131 20.3981 26.7326 19.0136 26.5098C17.6292 26.287 16.3503 25.6334 15.3587 24.6419C14.3672 23.6503 13.7135 22.3714 13.4908 20.9869C13.268 19.6025 13.4874 18.1831 14.1179 16.9305C14.7483 15.678 15.7576 14.6562 17.0023 14.0103C18.247 13.3645 19.6636 13.1276 21.0506 13.3333C22.4655 13.5431 23.7754 14.2024 24.7868 15.2138C25.7982 16.2252 26.4575 17.535 26.6673 18.9499Z" stroke="#F5F5F5" stroke-width="2" stroke-linecap="round" stroke-linejoin="round"/>
</svg>
